<svg xmlns="http://www.w3.org/2000/svg" xmlns:xlink="http://www.w3.org/1999/xlink" viewBox="0 0 20 20" width="20" height="20" preserveAspectRatio="xMidYMid meet" style="width: 100%; height: 100%; transform: translate3d(0px, 0px, 0px); content-visibility: visible;" class=""><defs><clipPath id="__lottie_element_2"><rect width="20" height="20" x="0" y="0"></rect></clipPath></defs><g clip-path="url(#__lottie_element_2)"><g transform="matrix(1.387276291847229,0,0,1.387276291847229,9.63237190246582,9.0164213180542)" opacity="1" style="display: block;"><g opacity="1" transform="matrix(1.4697699546813965,0,0,1.4697699546813965,0.26499998569488525,0.7089999914169312)"><path fill="rgb(33,166,9)" fill-opacity="0.5" d=" M0,-4.343999862670898 C-2.3989999294281006,-4.343999862670898 -4.343999862670898,-2.3989999294281006 -4.343999862670898,0 C-4.343999862670898,2.3989999294281006 -2.3989999294281006,4.343999862670898 0,4.343999862670898 C2.3989999294281006,4.343999862670898 4.343999862670898,2.3989999294281006 4.343999862670898,0 C4.343999862670898,-2.3989999294281006 2.3989999294281006,-4.343999862670898 0,-4.343999862670898z"></path></g></g><g transform="matrix(0.75,0,0,0.75,10,10)" opacity="1" style="display: block;"><g opacity="1" transform="matrix(1.4697699546813965,0,0,1.4697699546813965,0,0)"><path fill="rgb(33,166,9)" fill-opacity="0.59" d=" M0,-4.343999862670898 C-2.3989999294281006,-4.343999862670898 -4.343999862670898,-2.3989999294281006 -4.343999862670898,0 C-4.343999862670898,2.3989999294281006 -2.3989999294281006,4.343999862670898 0,4.343999862670898 C2.3989999294281006,4.343999862670898 4.343999862670898,2.3989999294281006 4.343999862670898,0 C4.343999862670898,-2.3989999294281006 2.3989999294281006,-4.343999862670898 0,-4.343999862670898z"></path></g></g></g></svg>